PathFileType	4	(X/Y/Z)	Kaydara																																																																																																																																																																																																																												
DataRate	CameraRate	NumFrames	NumMarkers	Units	OrigDataRate	OrigDataStartFrame	OrigNumFrames																																																																																																																																																																																																																								
60	60	4	74	mm	60	1076	201																																																																																																																																																																																																																								
Frame#	Time	N_lasi			N_rasi			N_rpsi			N_lpsi			N_fneck			N_bneck			N_fhead			N_rhead			N_lhead			N_rshld			N_relbtop			N_relbext			N_relblow			N_rwrext			N_rwrtop			N_rwrlow			N_lshld			N_lelblow			N_lelbtop			N_lwrext			N_lwrtop			N_lwrlow			N_rtopleg			N_ltopleg			N_rkneefr			N_rkneebk			N_rkneeis			N_lkneefr			N_lknssbk			N_lkneeis			N_rankfr			N_rankis			N_rankbk			N_lankfr			N_lankbk			N_lankis			D_lasi			D_rasi			D_lpsi			D_fneck			D_bneck			D_fhead			D_rhead			D_lhead			D_rshld			D_relbtop			D_relbext			D_relblow			D_rwrext			D_rwrtop			D_rwrlow			D_lshld			D_lelbext			D_lelblow			D_lelbtop			D_lwrext			D_lwrtop			D_lwrlow			D_rtopleg			D_ltopleg			D_rkneefr			D_rkneebk			D_rkneeis			D_lkneefr			D_lknssbk			D_lkneeis			D_rankfr			D_rankis			D_rankbk			D_lankfr			D_lankbk			D_lankis			D_rpsi			N_lelbext		
		X1	Y1	Z1	X2	Y2	Z2	X3	Y3	Z3	X4	Y4	Z4	X5	Y5	Z5	X6	Y6	Z6	X7	Y7	Z7	X8	Y8	Z8	X9	Y9	Z9	X10	Y10	Z10	X11	Y11	Z11	X12	Y12	Z12	X13	Y13	Z13	X14	Y14	Z14	X15	Y15	Z15	X16	Y16	Z16	X17	Y17	Z17	X18	Y18	Z18	X19	Y19	Z19	X20	Y20	Z20	X21	Y21	Z21	X22	Y22	Z22	X23	Y23	Z23	X24	Y24	Z24	X25	Y25	Z25	X26	Y26	Z26	X27	Y27	Z27	X28	Y28	Z28	X29	Y29	Z29	X30	Y30	Z30	X31	Y31	Z31	X32	Y32	Z32	X33	Y33	Z33	X34	Y34	Z34	X35	Y35	Z35	X36	Y36	Z36	X37	Y37	Z37	X38	Y38	Z38	X39	Y39	Z39	X40	Y40	Z40	X41	Y41	Z41	X42	Y42	Z42	X43	Y43	Z43	X44	Y44	Z44	X45	Y45	Z45	X46	Y46	Z46	X47	Y47	Z47	X48	Y48	Z48	X49	Y49	Z49	X50	Y50	Z50	X51	Y51	Z51	X52	Y52	Z52	X53	Y53	Z53	X54	Y54	Z54	X55	Y55	Z55	X56	Y56	Z56	X57	Y57	Z57	X58	Y58	Z58	X59	Y59	Z59	X60	Y60	Z60	X61	Y61	Z61	X62	Y62	Z62	X63	Y63	Z63	X64	Y64	Z64	X65	Y65	Z65	X66	Y66	Z66	X67	Y67	Z67	X68	Y68	Z68	X69	Y69	Z69	X70	Y70	Z70	X71	Y71	Z71	X72	Y72	Z72	X73	Y73	Z73	X74	Y74	Z74
																																																																																																																																																																																																																															
126	17.917	-517.86842	1252.93167	-66.66605	-497.58858	1271.20705	-301.39278	-231.55338	1225.67093	-346.75407	-258.27784	1217.04468	2.14445	-350.01411	1606.92398	-153.78914	-208.27747	1660.75287	-158.75954	-414.98955	1801.40717	-157.70579	-224.67342	1770.59052	-220.52414	-269.92081	1774.65744	-70.3773	-200.20424	1630.94833	-350.95066	-159.85273	1560.95444	-634.15108	-244.32217	1593.47656	-624.06689	-158.06643	1637.69485	-574.59454	-197.89776	1904.71909	-666.7868	-153.16355	1914.59518	-650.50995	-146.32556	1891.99753	-607.90905	-203.44555	1584.64813	21.4274	-181.0935	1592.93106	270.17099	-193.76335	1514.4545	315.97614	-259.47971	1842.33475	387.52449	-214.67197	1857.79892	392.82116	-199.37298	1844.70871	341.04801	-406.72092	1059.13536	-432.49477	-365.40798	1017.67044	50.04005	-427.37213	564.011	-261.34644	-319.40109	579.97608	-325.85964	-370.65392	565.11238	-165.14631	-382.7877	539.88293	-99.75389	-257.95834	554.68494	-37.68745	-256.64709	547.04327	-187.23528	-293.60134	140.14646	-271.21761	-297.8359	153.8633	-192.20654	-215.81881	141.4633	-213.84378	-334.10591	192.04613	-120.28128	-261.30802	184.50006	-75.49693	-297.30802	163.50006	-159.49693	-463.55186	1036.88354	1734.88388	-424.30996	1056.57127	1449.83734	-265.91839	1132.99599	1741.00403	-412.8883	1566.4447	1602.83844	-273.65128	1595.27817	1610.96069	-458.26805	1773.33374	1603.31848	-292.47528	1735.07599	1532.31705	-305.40234	1734.08691	1686.651	-331.57394	1565.39063	1446.46164	-331.92318	1432.56439	1167.39601	-402.74162	1448.34686	1183.82118	-323.80974	1516.20651	1178.52478	-449.62818	1563.96332	957.41898	-438.6002	1619.89258	971.22055	-477.14722	1613.11874	1008.3709	-326.28601	1554.04083	1802.02911	-405.90481	1500.02838	2023.1041	-313.68603	1506.61957	2031.31622	-363.82671	1462.3082	2078.93921	-423.71693	1738.311	2046.83563	-381.12911	1740.95093	2034.04556	-378.54519	1723.2962	1988.92395	-330.99884	1005.66505	1404.02313	-321.84422	1010.26413	1804.62952	-373.25283	455.98747	1448.43628	-273.67151	491.42696	1420.20477	-280.45984	459.3375	1540.87463	-359.85527	450.89203	1768.29163	-246.8837	486.7041	1783.72772	-319.26102	444.05479	1677.08038	-324.1671	130.43218	1417.49603	-294.74508	127.13007	1482.05093	-243.87592	127.92257	1417.42111	-323.8076	135.0195	1791.55594	-251.17422	125.13971	1805.37659	-294.45171	124.02797	1732.18918	-236.74004	1148.77029	1523.74207	-270.3706	1560.4715	299.16645
127	17.933	-517.49569	1252.7327	-66.40962	-497.42672	1271.51726	-300.86424	-231.58352	1225.72433	-347.02576	-257.60151	1216.62277	2.09591	-349.38305	1606.64948	-153.24184	-207.64637	1660.47836	-158.21224	-414.60712	1801.32904	-157.525	-224.42719	1770.24124	-220.11356	-269.63627	1774.15314	-69.91919	-198.57357	1629.39987	-350.46764	-160.43774	1557.42706	-634.47563	-244.73249	1591.23444	-623.13335	-156.86943	1633.37524	-574.35883	-199.51258	1901.32004	-662.43462	-155.07237	1911.20193	-645.20531	-148.00972	1887.86606	-602.94575	-203.23587	1584.18594	22.25946	-181.66502	1591.24985	271.33472	-194.33197	1512.6445	316.65958	-264.49924	1839.81766	386.59061	-219.94469	1856.01883	391.71543	-204.32302	1842.6091	340.0655	-406.85631	1059.6138	-432.6088	-364.68109	1017.54265	49.9817	-427.61917	563.97358	-261.0391	-319.80965	579.89773	-325.79388	-370.68443	565.10414	-164.93658	-382.60281	539.9371	-99.48374	-257.59075	554.76219	-37.71545	-256.73571	547.02652	-187.28539	-293.80884	140.08952	-271.05978	-297.87189	153.79823	-191.99938	-215.83084	141.47624	-213.89336	-334.06597	192.07289	-120.16801	-261.15084	184.50064	-75.49099	-297.15084	163.50064	-159.49099	-463.50655	1036.96091	1735.35172	-424.26983	1056.66153	1450.10117	-265.77364	1133.04001	1741.19659	-413.77022	1566.51443	1604.30511	-274.15611	1595.54108	1612.06833	-459.06719	1773.32397	1605.20599	-293.13244	1735.54367	1533.90198	-305.92747	1733.9502	1688.20908	-332.25636	1566.16241	1447.97699	-333.2346	1435.10269	1169.47395	-404.94759	1450.87036	1184.18747	-324.71874	1519.00406	1179.02069	-441.45416	1558.34808	951.25015	-434.53529	1614.89349	964.533	-474.88434	1606.46194	999.22722	-326.81454	1554.48593	1802.56302	-406.43742	1501.87103	2023.83713	-314.23368	1508.27881	2031.9841	-364.4733	1464.03748	2079.71115	-423.87917	1740.33157	2046.89575	-381.15883	1742.96555	2033.93967	-378.43796	1724.90784	1989.00513	-330.95253	1005.72693	1404.12155	-321.67721	1010.30472	1804.83795	-373.25699	456.01791	1448.51364	-273.70529	491.43421	1420.40909	-280.51229	459.33578	1540.98816	-359.68651	450.89436	1768.41995	-246.71217	486.74347	1783.94058	-319.06925	444.08588	1677.22595	-324.17191	130.44055	1417.52121	-294.74798	127.12832	1482.04803	-243.89666	127.92509	1417.47238	-323.7738	135.05147	1791.60049	-251.15513	125.13766	1805.44052	-294.44582	124.01795	1732.28546	-236.67509	1149.0609	1523.61938	-271.43568	1557.95258	299.74606
128	17.95	-517.26097	1252.43484	-66.0609	-497.15	1271.72028	-300.22091	-231.54408	1225.66002	-347.22332	-256.94033	1216.2001	2.03927	-348.82191	1606.24054	-153.06411	-207.08527	1660.06943	-158.03451	-414.18045	1801.10703	-157.41005	-223.59741	1770.112	-219.61752	-269.35194	1773.51883	-69.73196	-196.96844	1627.96768	-350.21191	-160.55204	1555.08621	-634.50703	-244.51546	1589.50027	-622.56073	-155.55711	1630.84824	-574.10065	-202.1805	1898.68698	-659.04831	-157.68282	1908.76648	-642.45735	-150.1123	1885.11429	-600.41359	-203.07541	1583.65204	23.4672	-182.67017	1590.14206	272.77256	-195.04114	1511.16425	317.76146	-269.46577	1837.59262	385.54211	-225.24986	1854.29947	391.12396	-208.83886	1840.7724	339.66934	-407.40013	1060.09674	-432.70947	-364.03095	1017.32841	49.84698	-428.03753	563.89408	-260.54846	-320.27554	579.75452	-325.71636	-370.71812	565.08106	-164.58778	-382.46628	539.94549	-99.2526	-257.22761	554.68231	-37.69827	-256.71701	546.97914	-187.31907	-294.08758	139.95254	-270.73784	-297.93776	153.68342	-191.63931	-216.17905	141.36289	-213.75315	-334.00398	192.0653	-120.05545	-261.05738	184.46318	-75.43583	-297.05738	163.46318	-159.43583	-463.2959	1036.98219	1735.63919	-424.2041	1056.71013	1450.33005	-265.64287	1133.11302	1741.3652	-414.53617	1566.57455	1605.37857	-274.70623	1595.97458	1613.50998	-459.66351	1773.2782	1607.02057	-293.94388	1735.79712	1535.21301	-306.42635	1733.78586	1689.61044	-332.99393	1566.79626	1449.46167	-334.39125	1437.91779	1171.25801	-406.59531	1453.57162	1184.26712	-325.35965	1522.00027	1179.33121	-433.0127	1553.42911	945.606	-430.66845	1610.00885	958.35747	-472.59602	1599.68567	990.867	-327.36027	1554.85184	1803.08365	-406.72337	1503.44193	2024.4516	-314.84865	1509.74579	2032.77573	-365.06008	1465.91797	2080.41992	-423.83789	1742.12616	2047.16949	-381.03558	1744.49387	2034.5784	-378.47694	1726.63391	1989.39789	-330.88768	1005.74448	1404.27277	-321.41289	1010.2581	1805.009	-373.22887	456.04855	1448.62579	-273.77674	491.4386	1420.6575	-280.54136	459.32076	1541.12106	-359.50909	450.91579	1768.5231	-246.53883	486.70692	1784.08844	-318.92136	444.14982	1677.33154	-324.16496	130.45755	1417.56912	-294.75004	127.14628	1482.07397	-243.90963	127.96205	1417.47574	-323.7505	135.03611	1791.63605	-251.22908	125.00622	1805.31998	-294.412	124.07127	1732.35291	-236.61335	1149.27605	1523.60245	-272.42228	1555.57938	300.39696
129	17.967	-517.11792	1252.04483	-65.60943	-496.74122	1271.66481	-299.52356	-231.2982	1225.41298	-347.24777	-256.43673	1215.8992	2.16345	-347.88506	1605.83221	-152.83125	-206.14841	1659.6611	-157.80165	-413.68416	1800.84946	-157.34449	-223.07961	1770.00626	-219.16378	-269.15293	1772.88513	-69.36446	-195.74278	1626.94366	-349.63181	-159.83434	1553.63266	-634.43279	-243.84617	1587.90512	-622.29942	-155.02625	1629.71603	-574.05079	-205.12077	1896.75293	-658.09807	-160.4916	1907.11578	-641.51077	-152.58413	1883.3139	-599.72801	-203.25375	1583.33832	24.64816	-184.24686	1589.27567	274.48116	-196.18196	1509.93774	318.91712	-273.98367	1835.82916	384.33922	-229.9485	1852.7562	390.63324	-212.55735	1839.27994	339.6257	-408.01239	1060.41275	-432.70229	-363.31936	1017.04453	49.7361	-428.40866	563.79414	-260.06372	-320.95055	579.55452	-325.53535	-370.65029	565.06531	-164.27509	-382.1949	539.89418	-98.98494	-256.79554	554.6645	-37.73061	-256.70162	546.9104	-187.32933	-294.41982	139.75748	-270.39856	-298.11356	153.61163	-191.13064	-216.33402	141.28618	-213.74561	-333.87123	192.02795	-119.91593	-260.92529	184.42219	-75.40059	-296.92529	163.42219	-159.40059	-462.66525	1036.77979	1735.89874	-424.10709	1056.78123	1450.58807	-265.54586	1133.16284	1741.53198	-415.08911	1566.60599	1606.41006	-275.30115	1595.99945	1614.47159	-460.14523	1773.35449	1608.69598	-294.80698	1735.92758	1536.21994	-306.87061	1733.6618	1690.90973	-333.58707	1567.32742	1450.78934	-335.28229	1441.10321	1172.63504	-408.13667	1456.68533	1184.18625	-326.01917	1525.43365	1179.74487	-424.92748	1549.34479	940.18059	-427.16908	1605.65598	953.1102	-470.13935	1592.60529	982.94846	-327.7882	1555.18646	1803.2991	-407.18483	1505.12985	2025.2356	-315.20971	1511.14777	2033.38745	-365.26009	1467.2699	2081.26343	-424.05258	1743.71063	2047.80457	-380.99983	1746.09833	2035.0592	-378.32664	1728.27957	1990.10056	-330.76359	1005.78293	1404.49249	-321.2138	1010.26375	1805.18829	-373.20625	455.98991	1448.85315	-273.66825	491.47327	1420.79559	-280.45069	459.31747	1541.32782	-359.29108	450.91957	1768.74054	-246.39839	486.69258	1784.2041	-318.73672	444.14391	1677.5209	-324.1029	130.52892	1417.6413	-294.76969	127.14254	1482.13531	-243.9094	127.96953	1417.58163	-323.69865	135.06721	1791.73126	-251.50064	124.65722	1804.99924	-294.40393	124.06596	1732.42554	-236.56666	1149.5266	1523.64517	-273.81216	1553.51379	301.00061
